<svg width="468" height="424" viewBox="0 0 468 424" fill="none" xmlns="http://www.w3.org/2000/svg">
<mask id="mask0_812_1676" style="mask-type:alpha" maskUnits="userSpaceOnUse" x="0" y="0" width="468" height="424">
<rect width="468" height="424" fill="#D9D9D9"/>
</mask>
<g mask="url(#mask0_812_1676)">
<path d="M23.2973 307.686C23.2973 307.686 23.1962 307.627 23.095 307.569C22.8927 307.452 22.9668 307.09 23.0836 306.888L182.619 73.5477C182.619 73.5477 183.055 73.2599 183.316 73.2756L481.512 185.421C481.512 185.421 481.917 185.654 481.741 185.958C481.625 186.16 481.508 186.362 481.391 186.565L23.7604 307.818C23.7604 307.818 23.4996 307.803 23.2973 307.686ZM183.296 74.478L24.9555 306.215L479.337 185.918L183.238 74.5791L183.296 74.478Z" fill="#F5F3EF"/>
<path d="M23.3004 307.69C23.3004 307.69 22.9969 307.515 23.0125 307.254C23.0282 306.993 23.2034 306.69 23.4214 306.546L481.153 185.351C481.153 185.351 481.515 185.425 481.616 185.483C481.818 185.6 481.861 185.759 481.846 186.02L475.792 302.562C475.792 302.562 475.5 303.068 475.181 303.153L23.6622 307.764C23.6622 307.764 23.4599 307.647 23.3588 307.589L23.3004 307.69ZM480.756 186.74L28.2894 306.524L474.781 301.978L480.756 186.74Z" fill="#F5F3EF"/>
<path d="M182.83 74.3433C182.83 74.3433 182.484 74.0086 182.601 73.8063C182.718 73.604 182.893 73.3005 183.052 73.2578L471.978 19.0124C471.978 19.0124 472.239 19.0281 472.441 19.1449C472.542 19.2033 472.686 19.4212 472.729 19.5808L481.84 186.014C481.84 186.014 481.766 186.376 481.548 186.52C481.489 186.621 481.17 186.706 480.968 186.59L182.772 74.4445L182.83 74.3433ZM471.538 20.2419L185.309 74.0212L480.743 185.111L471.538 20.2419Z" fill="#F5F3EF"/>
<path d="M509.356 548.795C509.356 548.795 509.052 548.62 509.068 548.359L480.735 186.052C480.735 186.052 480.867 185.589 481.085 185.445C481.303 185.301 481.564 185.316 481.708 185.534L670.965 354.146C670.965 354.146 671.194 354.683 671.019 354.987L509.994 548.624C509.994 548.624 509.558 548.911 509.356 548.795ZM482.019 187.332L510.104 546.799L669.832 354.706L482.12 187.391L482.019 187.332Z" fill="#F5F3EF"/>
<path d="M670.285 355.101L481.028 186.489C481.028 186.489 480.884 186.271 480.841 186.112L471.528 19.562C471.528 19.562 471.661 19.0989 471.879 18.955C472.198 18.8695 472.4 18.9863 472.486 19.3054L670.912 354.249C670.912 354.249 671.141 354.786 671.024 354.988C670.849 355.292 670.53 355.377 670.226 355.202L670.285 355.101ZM481.915 185.653L668.243 351.629L472.851 21.9438L481.857 185.754L481.915 185.653Z" fill="#F5F3EF"/>
<path d="M203.089 594.782C203.089 594.782 202.887 594.665 202.786 594.606C202.642 594.388 202.657 594.128 202.875 593.984L474.864 302.295C474.864 302.295 475.242 302.108 475.503 302.124C475.705 302.24 475.907 302.357 475.892 302.618L510.177 548.325C510.177 548.325 509.986 548.889 509.768 549.033L203.552 594.914C203.552 594.914 203.291 594.898 203.19 594.84L203.089 594.782ZM474.872 303.917L204.891 593.529L508.889 547.986L474.813 304.018L474.872 303.917Z" fill="#F5F3EF"/>
<path d="M203.087 594.78L202.885 594.663L23.1953 307.627C23.1953 307.627 23.0087 307.249 23.1255 307.047C23.2423 306.845 23.3591 306.642 23.5614 306.759L475.298 302.005C475.298 302.005 475.703 302.238 475.804 302.297C475.948 302.515 475.831 302.717 475.714 302.919L203.725 594.609C203.725 594.609 203.449 594.854 203.247 594.737C203.247 594.737 203.145 594.678 203.044 594.62L203.087 594.78ZM24.7012 307.822L203.543 593.289L473.975 303.129L24.7012 307.822Z" fill="#F5F3EF"/>
<path d="M509.36 548.797C509.36 548.797 509.057 548.622 509.073 548.361L474.787 302.655L480.798 185.953C480.798 185.953 481.09 185.447 481.409 185.362C481.67 185.377 481.915 185.654 482.059 185.872L510.392 548.179C510.392 548.179 510.201 548.743 509.882 548.829C509.882 548.829 509.68 548.712 509.578 548.653L509.36 548.797ZM481.41 194.938L475.846 302.457L507.507 529.115L481.41 194.938Z" fill="#F5F3EF"/>
<path d="M23.299 307.686C23.299 307.686 23.1978 307.628 23.0967 307.569C22.8944 307.453 22.9684 307.091 23.0852 306.888L182.621 73.548C182.621 73.548 182.796 73.2446 183.057 73.2602C183.158 73.3186 183.318 73.2759 183.461 73.4938L318.264 205.136C318.264 205.136 318.451 205.514 318.493 205.673C318.377 205.876 318.318 205.977 318.201 206.179L23.8204 307.717C23.8204 307.717 23.5013 307.803 23.299 307.686ZM183.181 74.6806L25.0739 306.013L316.844 205.26L183.123 74.7817L183.181 74.6806Z" fill="#F5F3EF"/>
<path d="M23.3003 307.688C23.3003 307.688 22.9969 307.513 23.0125 307.252C23.0282 306.992 23.2034 306.688 23.3629 306.645L317.701 204.948C317.701 204.948 318.121 204.921 318.223 204.979C318.425 205.096 318.468 205.255 318.452 205.516L312.399 322.058C312.399 322.058 312.107 322.564 311.788 322.649L23.5027 307.805C23.5027 307.805 23.4015 307.747 23.3003 307.688ZM317.304 206.337L26.651 306.79L311.387 321.474L317.304 206.337Z" fill="#F5F3EF"/>
<path d="M317.633 205.989L317.531 205.931L182.729 74.2881C182.729 74.2881 182.542 73.9106 182.558 73.6499C182.675 73.4476 182.791 73.2453 183.052 73.2609L471.978 19.0156C471.978 19.0156 472.441 19.1481 472.585 19.366C472.729 19.584 472.713 19.8447 472.495 19.9886L318.314 205.978C318.314 205.978 318.138 206.281 317.936 206.164C317.936 206.164 317.734 206.047 317.633 205.989ZM184.25 74.2225L317.87 204.643L470.639 20.4005L184.352 74.2809L184.25 74.2225Z" fill="#F5F3EF"/>
<path d="M509.36 548.799C509.36 548.799 509.157 548.683 509.056 548.624L317.489 205.772C317.489 205.772 317.361 205.293 317.579 205.149C317.696 204.947 318.015 204.861 318.217 204.978L670.868 354.092C670.868 354.092 671.171 354.268 671.156 354.528C671.198 354.688 671.183 354.949 671.023 354.991L509.998 548.628C509.998 548.628 509.722 548.873 509.461 548.858C509.461 548.858 509.36 548.799 509.259 548.741L509.36 548.799ZM319.267 206.663L509.714 547.251L669.618 354.855L319.267 206.663Z" fill="#F5F3EF"/>
<path d="M317.635 205.989C317.635 205.989 317.332 205.814 317.347 205.553C317.304 205.394 317.32 205.133 317.48 205.09L471.763 19.1598C471.763 19.1598 472.039 18.9148 472.3 18.9304C472.401 18.9888 472.603 19.1056 472.805 19.2224L671.274 354.326C671.274 354.326 671.402 354.804 671.184 354.948C671.068 355.15 670.749 355.236 670.546 355.119L317.896 206.005L317.635 205.989ZM472.046 20.5374L318.884 205.227L669.134 353.36L472.046 20.5374Z" fill="#F5F3EF"/>
<path d="M203.083 594.779L202.881 594.662C202.881 594.662 202.694 594.285 202.811 594.082L311.406 321.891C311.406 321.891 311.582 321.587 311.842 321.603C312.002 321.56 312.263 321.576 312.348 321.895L510.027 548.104C510.027 548.104 510.214 548.481 510.097 548.684C509.98 548.886 509.863 549.088 509.602 549.073L203.386 594.954C203.386 594.954 203.126 594.938 203.025 594.88L203.083 594.779ZM312.11 323.241L204.305 593.596L508.463 548.01L312.11 323.241Z" fill="#F5F3EF"/>
<path d="M202.882 594.665L23.1924 307.629C23.1924 307.629 23.0642 307.15 23.1226 307.049C23.181 306.948 23.4573 306.703 23.7181 306.719L312.003 321.563C312.003 321.563 312.306 321.738 312.509 321.855C312.61 321.913 312.594 322.174 312.579 322.435L203.983 594.626C203.983 594.626 203.749 595.031 203.489 595.016C203.489 595.016 203.286 594.899 203.185 594.84L202.882 594.665ZM24.6983 307.824L203.194 592.957L310.999 322.602L24.5972 307.766L24.6983 307.824Z" fill="#F5F3EF"/>
<path d="M509.366 548.802L509.163 548.685L311.543 322.375C311.543 322.375 311.399 322.157 311.357 321.997L317.41 205.455C317.41 205.455 317.643 205.051 317.861 204.907C318.122 204.922 318.383 204.938 318.468 205.257L510.094 548.008C510.094 548.008 510.164 548.588 509.946 548.732C509.829 548.934 509.467 548.86 509.366 548.802ZM312.617 321.916L506.476 543.762L318.386 207.502L312.516 321.857L312.617 321.916Z" fill="#F5F3EF"/>
<path d="M675.003 355.804C674.383 358.279 671.784 359.745 669.367 359.025C666.893 358.405 665.427 355.805 666.089 353.49C666.708 351.015 669.207 349.491 671.623 350.211C674.098 350.831 675.463 353.372 674.902 355.746L675.003 355.804Z" fill="#F5F3EF"/>
<path d="M476.638 20.7604C476.018 23.235 473.418 24.7012 471.002 23.9806C468.527 23.3611 467.061 20.7612 467.724 18.4461C468.343 15.9714 470.842 14.4469 473.258 15.1675C475.733 15.787 477.098 18.3285 476.537 20.702L476.638 20.7604Z" fill="#F5F3EF"/>
<path d="M322.411 206.587C321.792 209.061 319.192 210.527 316.776 209.807C314.301 209.187 312.835 206.587 313.497 204.272C314.116 201.798 316.615 200.273 319.031 200.994C321.506 201.613 322.871 204.155 322.31 206.528L322.411 206.587Z" fill="#F5F3EF"/>
<path d="M316.397 323.287C315.777 325.761 313.177 327.228 310.761 326.507C308.286 325.887 306.82 323.288 307.482 320.973C308.102 318.498 310.601 316.973 313.017 317.694C315.491 318.313 316.856 320.855 316.295 323.228L316.397 323.287Z" fill="#F5F3EF"/>
<path d="M207.865 595.381C207.246 597.855 204.646 599.321 202.23 598.601C199.755 597.981 198.289 595.381 198.951 593.066C199.571 590.592 202.069 589.067 204.485 589.788C206.96 590.407 208.325 592.949 207.764 595.322L207.865 595.381Z" fill="#F5F3EF"/>
<path d="M28.0732 308.289C27.4537 310.763 24.8539 312.23 22.4376 311.509C19.963 310.889 18.4968 308.29 19.159 305.974C19.7786 303.5 22.2772 301.975 24.6935 302.696C27.1682 303.315 28.5332 305.857 27.9721 308.23L28.0732 308.289Z" fill="#F5F3EF"/>
<path d="M187.842 74.5406C187.222 77.0153 184.622 78.4815 182.206 77.7608C179.732 77.1413 178.265 74.5415 178.928 72.2264C179.547 69.7517 182.046 68.2271 184.462 68.9478C186.937 69.5673 188.302 72.1087 187.741 74.4822L187.842 74.5406Z" fill="#F5F3EF"/>
</g>
</svg>
